<svg xmlns="http://www.w3.org/2000/svg" xmlns:xlink="http://www.w3.org/1999/xlink" width="12" height="12" viewBox="0 0 12 12" fill="none"><defs><rect id="path_0" x="0" y="0" width="12" height="12" /></defs><g opacity="1" transform="translate(0 0)  rotate(0 6 6)"><mask id="bg-mask-0" fill="white"><use xlink:href="#path_0"></use></mask><g mask="url(#bg-mask-0)" ><path id="分组 1" fill-rule="evenodd" style="fill:#FFFFFF" transform="translate(0.000051795529751319513 0.0033815153379846974)  rotate(0 5.9999648588292915 5.9967487178002)" opacity="1" d="M9.59 8C9.4 7.81 9.21 7.63 9.03 7.46C9.05 7.41 9.05 7.4 9.05 7.39C9.07 7.36 9.08 7.33 9.1 7.29C9.62 6.37 9.83 5.39 9.72 4.34C9.42 1.53 6.74 -0.45 3.97 0.09C1.29 0.61 -0.48 3.25 0.11 5.88C0.84 9.13 4.36 10.71 7.27 9.11C7.4 9.04 7.47 9.05 7.57 9.15C8.39 9.97 9.21 10.79 10.02 11.61C10.52 12.1 11.21 12.12 11.67 11.66C12.13 11.2 12.11 10.51 11.62 10.03C10.94 9.35 10.27 8.67 9.59 8Z M8.25678 4.86003C8.24678 2.99003 6.70678 1.49003 4.83678 1.50003C2.98678 1.52003 1.49678 3.05003 1.50678 4.92003C1.51678 6.74003 3.05678 8.26003 4.86678 8.25003C6.75678 8.23003 8.25678 6.72003 8.25678 4.86003Z " /><path id="路径 3" fill-rule="evenodd" style="fill:#FFFFFF" transform="translate(2.263199999999923 2.26793924210871)  rotate(0 1.3083399982910202 1.2987103808987521)" opacity="1" d="M0.73,2.6C0.79,1.65 1.4,0.82 2.62,0.72C2.62,0.54 2.62,0.36 2.62,0.18C2.62,0.12 2.61,0.06 2.61,0C1.34,-0.05 0,1.05 0,2.6L0.73,2.6Z " /></g></g></svg>