<svg xmlns="http://www.w3.org/2000/svg" xmlns:xlink="http://www.w3.org/1999/xlink" width="20" height="20" viewBox="0 0 20 20" fill="none"><defs><rect id="path_0" x="0" y="0" width="20" height="20" /></defs><g opacity="1" transform="translate(0 0)  rotate(0 10 10)"><mask id="bg-mask-0" fill="white"><use xlink:href="#path_0"></use></mask><g mask="url(#bg-mask-0)" ><path id="分组 1" fill-rule="evenodd" style="fill:#4E4E4E" transform="translate(2.5 2.5)  rotate(0 7.5 7.5)" opacity="1" d="M2.37 15.0025L12.63 15.0025C13.94 15.0025 15 13.9825 15 12.7325L15 11.2525C15 10.7325 14.58 10.3125 14.06 10.3125C13.54 10.3125 13.13 10.7325 13.13 11.2525L13.13 12.7325C13.13 12.9425 12.9 13.1225 12.63 13.1225L2.37 13.1225C2.1 13.1225 1.88 12.9425 1.88 12.7325L1.88 11.2525C1.88 10.7325 1.46 10.3125 0.94 10.3125C0.42 10.3125 0 10.7325 0 11.2525L0 12.7325C0 13.9825 1.06 15.0025 2.37 15.0025Z M6.5625 0.94L6.5625 9.38C6.5625 9.89 6.9825 10.31 7.5025 10.31C8.0225 10.31 8.4425 9.89 8.4425 9.38L8.4425 0.94C8.4425 0.42 8.0225 0 7.5025 0C6.9825 0 6.5625 0.42 6.5625 0.94Z " /><path id="路径 3" fill-rule="evenodd" style="fill:#4E4E4E" transform="translate(6.791015625000004 9.255859375000009)  rotate(0 3.209960937499999 2.0742187499999987)" opacity="1" d="M3.21,1.88L1.6,0.28C1.23,-0.09 0.64,-0.09 0.28,0.28C-0.09,0.64 -0.09,1.23 0.28,1.6L2.55,3.87C2.91,4.24 3.51,4.24 3.87,3.87L6.14,1.6C6.51,1.23 6.51,0.64 6.14,0.28C5.96,0.09 5.72,0 5.48,0C5.24,0 5,0.09 4.82,0.28L3.21,1.88Z " /></g></g></svg>