<svg xmlns="http://www.w3.org/2000/svg" xmlns:xlink="http://www.w3.org/1999/xlink" width="14" height="13" viewBox="0 0 14 13" fill="none"><g opacity="1" transform="translate(0.00001997686649701791 -0.00008480558426526841)  rotate(0 6.710917523133528 6.078698086834205)"><path id="路径 1" fill-rule="evenodd" style="fill:#4E4E4E" transform="translate(7.17514274646237 10.54201155355122)  rotate(0 3.123346149902343 0.8076923100585951)" opacity="1" d="M6.25,0.81C6.25,0.36 5.89,0 5.44,0L0.81,0C0.36,0 0,0.36 0,0.81C0,1.25 0.36,1.62 0.81,1.62L5.44,1.62C5.89,1.62 6.25,1.25 6.25,0.81Z " /><path id="分组 1" fill-rule="evenodd" style="fill:#4E4E4E" transform="translate(0 0)  rotate(0 6 6)" opacity="1" d="M11.44 1.98L10.02 0.56C9.66 0.2 9.17 0 8.67 0C8.16 0 7.67 0.2 7.31 0.56L0.46 7.41C0.17 7.7 0 8.1 0 8.52L0 10.42C0 10.84 0.17 11.24 0.46 11.54C0.76 11.83 1.16 12 1.58 12L3.48 12C3.9 12 4.3 11.83 4.59 11.54L11.44 4.7C11.8 4.34 12 3.85 12 3.34C12 2.83 11.8 2.34 11.44 1.98Z M10.3107 3.57289C10.3707 3.51289 10.4007 3.42289 10.4007 3.34289C10.4007 3.25289 10.3707 3.16289 10.3107 3.10289L8.89073 1.68289C8.83073 1.62289 8.75073 1.59289 8.66073 1.59289C8.58073 1.59289 8.50073 1.62289 8.44073 1.68289L1.59073 8.53289L1.59073 10.4029L3.48073 10.4029L10.3107 3.57289Z " /><path id="路径 4" fill-rule="evenodd" style="fill:#4E4E4E" transform="translate(5.285897829633541 2.285526189286884)  rotate(0 2.2878410717930984 2.307704859181969)" opacity="1" d="M0.24,0.23C0.09,0.38 0,0.59 0,0.8C0,1.02 0.08,1.22 0.23,1.38L3.19,4.38C3.35,4.53 3.55,4.62 3.77,4.62C3.98,4.62 4.18,4.53 4.34,4.38C4.49,4.23 4.57,4.03 4.58,3.81C4.58,3.6 4.49,3.39 4.34,3.24L1.38,0.24C1.07,-0.08 0.56,-0.08 0.24,0.23Z " /></g></svg>