<svg xmlns="http://www.w3.org/2000/svg" xmlns:xlink="http://www.w3.org/1999/xlink" width="16" height="16" viewBox="0 0 16 16" fill="none"><defs><rect id="path_0" x="0" y="0" width="16" height="16" /></defs><g opacity="1" transform="translate(0 0)  rotate(0 8 8)"><mask id="bg-mask-0" fill="white"><use xlink:href="#path_0"></use></mask><g mask="url(#bg-mask-0)" ><path id="分组 1" fill-rule="evenodd" style="fill:#4E4E4E" transform="translate(0.00006906070641787831 0.004508687117315779)  rotate(0 7.999953145105722 7.995664957066934)" opacity="1" d="M12.05 9.95C12.06 9.88 12.06 9.86 12.07 9.85C12.09 9.81 12.11 9.77 12.13 9.73C12.83 8.5 13.11 7.19 12.96 5.78C12.56 2.05 8.99 -0.6 5.3 0.12C1.71 0.81 -0.63 4.34 0.15 7.84C1.12 12.17 5.81 14.29 9.7 12.15C9.87 12.05 9.96 12.06 10.09 12.2C11.18 13.3 12.27 14.38 13.37 15.48C14.03 16.14 14.95 16.16 15.56 15.55C16.17 14.93 16.14 14.02 15.49 13.37C14.59 12.46 13.69 11.56 12.79 10.66C12.54 10.41 12.28 10.17 12.05 9.95Z M10.999 6.48004C10.989 3.99004 8.94904 1.98004 6.44904 2.00004C3.97904 2.02004 1.99904 4.06004 2.00904 6.56004C2.01904 8.98004 4.07904 11.01 6.48904 10.99C9.00904 10.98 11.019 8.97004 10.999 6.48004Z " /><path id="路径 3" fill-rule="evenodd" style="fill:#4E4E4E" transform="translate(3.0175999999999554 3.0239189894782754)  rotate(0 1.7444533310546937 1.7316138411983362)" opacity="1" d="M0.97,3.46C1.05,2.2 1.86,1.1 3.49,0.96C3.49,0.72 3.49,0.48 3.49,0.24C3.49,0.16 3.48,0.08 3.48,0C1.78,-0.07 0,1.4 0,3.46L0.97,3.46Z " /></g></g></svg>